<svg width="115" height="78" viewBox="0 0 115 78" fill="none" xmlns="http://www.w3.org/2000/svg">
<path d="M103.522 76.7998C104.074 77.3514 104.968 77.3514 105.52 76.7998L114.508 67.8111C115.06 67.2595 115.06 66.3652 114.508 65.8136C113.957 65.262 113.062 65.262 112.511 65.8136L104.521 73.8036L96.5309 65.8136C95.9793 65.262 95.085 65.262 94.5334 65.8136C93.9818 66.3652 93.9818 67.2595 94.5334 67.8111L103.522 76.7998ZM4.28442 2.8248C5.06449 2.8248 5.69686 2.19243 5.69686 1.41235C5.69686 0.632282 5.06449 -9.08375e-05 4.28442 -9.08375e-05V1.41235V2.8248ZM12.8532 -9.08375e-05C12.0732 -9.08375e-05 11.4408 0.632282 11.4408 1.41235C11.4408 2.19243 12.0732 2.8248 12.8532 2.8248V1.41235V-9.08375e-05ZM21.4221 2.8248C22.2021 2.8248 22.8345 2.19243 22.8345 1.41235C22.8345 0.632282 22.2021 -9.08375e-05 21.4221 -9.08375e-05V1.41235V2.8248ZM29.9909 -9.08375e-05C29.2108 -9.08375e-05 28.5785 0.632282 28.5785 1.41235C28.5785 2.19243 29.2108 2.8248 29.9909 2.8248V1.41235V-9.08375e-05ZM38.5597 2.8248C39.3398 2.8248 39.9722 2.19243 39.9722 1.41235C39.9722 0.632282 39.3398 -9.08375e-05 38.5597 -9.08375e-05V1.41235V2.8248ZM47.1286 -9.08375e-05C46.3485 -9.08375e-05 45.7161 0.632282 45.7161 1.41235C45.7161 2.19243 46.3485 2.8248 47.1286 2.8248V1.41235V-9.08375e-05ZM55.6974 2.8248C56.4775 2.8248 57.1099 2.19243 57.1099 1.41235C57.1099 0.632282 56.4775 -9.08375e-05 55.6974 -9.08375e-05V1.41235V2.8248ZM64.2662 -9.08375e-05C63.4862 -9.08375e-05 62.8538 0.632282 62.8538 1.41235C62.8538 2.19243 63.4862 2.8248 64.2662 2.8248V1.41235V-9.08375e-05ZM72.8351 2.8248C73.6151 2.8248 74.2475 2.19243 74.2475 1.41235C74.2475 0.632282 73.6151 -9.08375e-05 72.8351 -9.08375e-05V1.41235V2.8248ZM81.4039 -9.08375e-05C80.6238 -9.08375e-05 79.9915 0.632282 79.9915 1.41235C79.9915 2.19243 80.6238 2.8248 81.4039 2.8248V1.41235V-9.08375e-05ZM89.0896 3.1564C89.8549 3.30779 90.5979 2.81017 90.7493 2.04493C90.9007 1.27968 90.4031 0.536611 89.6378 0.385223L89.3637 1.77081L89.0896 3.1564ZM96.9378 3.41072C96.2896 2.97675 95.4123 3.15043 94.9783 3.79864C94.5443 4.44686 94.718 5.32414 95.3662 5.75811L96.152 4.58441L96.9378 3.41072ZM100.175 10.567C100.609 11.2152 101.486 11.3889 102.135 10.955C102.783 10.521 102.956 9.64371 102.523 8.9955L101.349 9.78126L100.175 10.567ZM105.548 16.2954C105.397 15.5302 104.654 15.0326 103.888 15.1839C103.123 15.3353 102.625 16.0784 102.777 16.8436L104.162 16.5695L105.548 16.2954ZM103.108 24.8746C103.108 25.6547 103.741 26.2871 104.521 26.2871C105.301 26.2871 105.933 25.6547 105.933 24.8746H104.521H103.108ZM105.933 34.134C105.933 33.3539 105.301 32.7215 104.521 32.7215C103.741 32.7215 103.108 33.3539 103.108 34.134H104.521H105.933ZM103.108 43.3933C103.108 44.1734 103.741 44.8058 104.521 44.8058C105.301 44.8058 105.933 44.1734 105.933 43.3933H104.521H103.108ZM105.933 52.6527C105.933 51.8726 105.301 51.2402 104.521 51.2402C103.741 51.2402 103.108 51.8726 103.108 52.6527H104.521H105.933ZM103.108 61.9121C103.108 62.6921 103.741 63.3245 104.521 63.3245C105.301 63.3245 105.933 62.6921 105.933 61.9121H104.521H103.108ZM105.933 71.1714C105.933 70.3913 105.301 69.759 104.521 69.759C103.741 69.759 103.108 70.3913 103.108 71.1714H104.521H105.933ZM0 1.41235V2.8248H4.28442V1.41235V-9.08375e-05H0V1.41235ZM12.8532 1.41235V2.8248H21.4221V1.41235V-9.08375e-05H12.8532V1.41235ZM29.9909 1.41235V2.8248H38.5597V1.41235V-9.08375e-05H29.9909V1.41235ZM47.1286 1.41235V2.8248H55.6974V1.41235V-9.08375e-05H47.1286V1.41235ZM64.2662 1.41235V2.8248H72.8351V1.41235V-9.08375e-05H64.2662V1.41235ZM81.4039 1.41235V2.8248H85.6883V1.41235V-9.08375e-05H81.4039V1.41235ZM85.6883 1.41235V2.8248C86.8535 2.8248 87.9907 2.939 89.0896 3.1564L89.3637 1.77081L89.6378 0.385223C88.3593 0.132295 87.0386 -9.08375e-05 85.6883 -9.08375e-05V1.41235ZM96.152 4.58441L95.3662 5.75811C97.2665 7.03033 98.9029 8.66673 100.175 10.567L101.349 9.78126L102.523 8.9955C101.045 6.78835 99.1449 4.88836 96.9378 3.41072L96.152 4.58441ZM104.162 16.5695L102.777 16.8436C102.994 17.9426 103.108 19.0797 103.108 20.2449H104.521H105.933C105.933 18.8947 105.801 17.5739 105.548 16.2954L104.162 16.5695ZM104.521 20.2449H103.108V24.8746H104.521H105.933V20.2449H104.521ZM104.521 34.134H103.108V43.3933H104.521H105.933V34.134H104.521ZM104.521 52.6527H103.108V61.9121H104.521H105.933V52.6527H104.521ZM104.521 71.1714H103.108V75.8011H104.521H105.933V71.1714H104.521Z" fill="#04A859"/>
</svg>
